<?xml version="1.0" encoding="UTF-8"?>
<!DOCTYPE svg PUBLIC "-//W3C//DTD SVG 1.1//EN" "http://www.w3.org/Graphics/SVG/1.1/DTD/svg11.dtd">
<svg xmlns="http://www.w3.org/2000/svg" version="1.1" width="537px" height="536px" style="shape-rendering:geometricPrecision; text-rendering:geometricPrecision; image-rendering:optimizeQuality; fill-rule:evenodd; clip-rule:evenodd" xmlns:xlink="http://www.w3.org/1999/xlink">
<g><path style="opacity:1" fill="#fefffe" d="M 31.5,-0.5 C 189.167,-0.5 346.833,-0.5 504.5,-0.5C 522.167,4.83077 532.833,16.4974 536.5,34.5C 536.5,189.833 536.5,345.167 536.5,500.5C 532.833,518.503 522.167,530.169 504.5,535.5C 346.833,535.5 189.167,535.5 31.5,535.5C 13.8333,530.169 3.16667,518.503 -0.5,500.5C -0.5,345.167 -0.5,189.833 -0.5,34.5C 3.16667,16.4974 13.8333,4.83077 31.5,-0.5 Z M 110.5,74.5 C 137.902,72.4172 155.735,84.4172 164,110.5C 166.751,132.16 158.918,148.66 140.5,160C 119.591,169.109 101.091,165.609 85,149.5C 69.5409,128.963 69.8742,108.63 86,88.5C 93.1158,81.8627 101.282,77.196 110.5,74.5 Z M 350.5,194.5 C 369.32,193.581 387.654,196.081 405.5,202C 423.274,209.44 436.107,221.94 444,239.5C 450.347,255.222 454.014,271.556 455,288.5C 455.84,305.323 456.34,322.157 456.5,339C 455.687,377.829 455.354,416.663 455.5,455.5C 429.5,455.5 403.5,455.5 377.5,455.5C 377.667,406.499 377.5,357.499 377,308.5C 374.863,273.023 356.363,258.523 321.5,265C 306.109,268.724 296.276,278.224 292,293.5C 289.693,301.676 288.36,310.009 288,318.5C 287.5,364.165 287.333,409.832 287.5,455.5C 261.5,455.5 235.5,455.5 209.5,455.5C 209.5,370.833 209.5,286.167 209.5,201.5C 234.5,201.5 259.5,201.5 284.5,201.5C 284.5,212.833 284.5,224.167 284.5,235.5C 285.675,235.719 286.675,235.386 287.5,234.5C 302.274,211.399 323.274,198.065 350.5,194.5 Z M 80.5,201.5 C 106.5,201.5 132.5,201.5 158.5,201.5C 158.5,286.167 158.5,370.833 158.5,455.5C 132.5,455.5 106.5,455.5 80.5,455.5C 80.5,370.833 80.5,286.167 80.5,201.5 Z"/></g>
</svg>
